<mxfile host="app.diagrams.net" agent="Mozilla/5.0 (Windows NT 10.0; Win64; x64) AppleWebKit/537.36 (KHTML, like Gecko) Chrome/138.0.0.0 Safari/537.36" version="27.1.4">
  <diagram name="PÃ¡gina-1" id="9oOMTNJ95tIYgwcNy12w">
    <mxGraphModel dx="1042" dy="527" grid="1" gridSize="10" guides="1" tooltips="1" connect="1" arrows="1" fold="1" page="1" pageScale="1" pageWidth="1000" pageHeight="1169" math="0" shadow="0">
      <root>
        <mxCell id="0" />
        <mxCell id="1" parent="0" />
        <mxCell id="XAd3KGWDydO3m51I3IWx-18" style="edgeStyle=orthogonalEdgeStyle;rounded=0;orthogonalLoop=1;jettySize=auto;html=1;exitX=0;exitY=0.75;exitDx=0;exitDy=0;entryX=0;entryY=0.5;entryDx=0;entryDy=0;curved=1;" edge="1" parent="1" source="XAd3KGWDydO3m51I3IWx-1" target="XAd3KGWDydO3m51I3IWx-6">
          <mxGeometry relative="1" as="geometry" />
        </mxCell>
        <mxCell id="XAd3KGWDydO3m51I3IWx-19" style="edgeStyle=orthogonalEdgeStyle;rounded=0;orthogonalLoop=1;jettySize=auto;html=1;exitX=0;exitY=0.5;exitDx=0;exitDy=0;entryX=0;entryY=0.5;entryDx=0;entryDy=0;curved=1;" edge="1" parent="1" source="XAd3KGWDydO3m51I3IWx-1" target="XAd3KGWDydO3m51I3IWx-9">
          <mxGeometry relative="1" as="geometry">
            <Array as="points">
              <mxPoint x="60" y="135" />
              <mxPoint x="60" y="250" />
            </Array>
          </mxGeometry>
        </mxCell>
        <mxCell id="XAd3KGWDydO3m51I3IWx-21" style="edgeStyle=orthogonalEdgeStyle;rounded=0;orthogonalLoop=1;jettySize=auto;html=1;exitX=0;exitY=0.25;exitDx=0;exitDy=0;entryX=0;entryY=0.5;entryDx=0;entryDy=0;curved=1;" edge="1" parent="1" source="XAd3KGWDydO3m51I3IWx-1" target="XAd3KGWDydO3m51I3IWx-8">
          <mxGeometry relative="1" as="geometry">
            <Array as="points">
              <mxPoint x="40" y="125" />
              <mxPoint x="40" y="305" />
            </Array>
          </mxGeometry>
        </mxCell>
        <mxCell id="XAd3KGWDydO3m51I3IWx-22" style="edgeStyle=orthogonalEdgeStyle;rounded=0;orthogonalLoop=1;jettySize=auto;html=1;exitX=1;exitY=0.5;exitDx=0;exitDy=0;entryX=0;entryY=0.5;entryDx=0;entryDy=0;" edge="1" parent="1" source="XAd3KGWDydO3m51I3IWx-1" target="XAd3KGWDydO3m51I3IWx-17">
          <mxGeometry relative="1" as="geometry" />
        </mxCell>
        <mxCell id="XAd3KGWDydO3m51I3IWx-1" value="clientes" style="whiteSpace=wrap;html=1;align=center;" vertex="1" parent="1">
          <mxGeometry x="100" y="115" width="100" height="40" as="geometry" />
        </mxCell>
        <mxCell id="XAd3KGWDydO3m51I3IWx-23" style="edgeStyle=orthogonalEdgeStyle;rounded=0;orthogonalLoop=1;jettySize=auto;html=1;exitX=0;exitY=0.5;exitDx=0;exitDy=0;entryX=1;entryY=0.5;entryDx=0;entryDy=0;" edge="1" parent="1" source="XAd3KGWDydO3m51I3IWx-2" target="XAd3KGWDydO3m51I3IWx-17">
          <mxGeometry relative="1" as="geometry" />
        </mxCell>
        <mxCell id="XAd3KGWDydO3m51I3IWx-29" style="edgeStyle=orthogonalEdgeStyle;rounded=0;orthogonalLoop=1;jettySize=auto;html=1;exitX=0;exitY=1;exitDx=0;exitDy=0;entryX=0;entryY=0.5;entryDx=0;entryDy=0;curved=1;" edge="1" parent="1" source="XAd3KGWDydO3m51I3IWx-2" target="XAd3KGWDydO3m51I3IWx-7">
          <mxGeometry relative="1" as="geometry" />
        </mxCell>
        <mxCell id="XAd3KGWDydO3m51I3IWx-30" style="edgeStyle=orthogonalEdgeStyle;rounded=0;orthogonalLoop=1;jettySize=auto;html=1;exitX=0;exitY=1;exitDx=0;exitDy=0;entryX=0;entryY=0.5;entryDx=0;entryDy=0;curved=1;" edge="1" parent="1" source="XAd3KGWDydO3m51I3IWx-2" target="XAd3KGWDydO3m51I3IWx-5">
          <mxGeometry relative="1" as="geometry">
            <Array as="points">
              <mxPoint x="490" y="155" />
              <mxPoint x="490" y="265" />
            </Array>
          </mxGeometry>
        </mxCell>
        <mxCell id="XAd3KGWDydO3m51I3IWx-31" style="edgeStyle=orthogonalEdgeStyle;rounded=0;orthogonalLoop=1;jettySize=auto;html=1;exitX=0;exitY=0.75;exitDx=0;exitDy=0;entryX=0;entryY=0.5;entryDx=0;entryDy=0;curved=1;" edge="1" parent="1" source="XAd3KGWDydO3m51I3IWx-2" target="XAd3KGWDydO3m51I3IWx-13">
          <mxGeometry relative="1" as="geometry">
            <Array as="points">
              <mxPoint x="480" y="145" />
              <mxPoint x="480" y="325" />
            </Array>
          </mxGeometry>
        </mxCell>
        <mxCell id="XAd3KGWDydO3m51I3IWx-33" style="edgeStyle=orthogonalEdgeStyle;rounded=0;orthogonalLoop=1;jettySize=auto;html=1;exitX=0;exitY=1;exitDx=0;exitDy=0;entryX=0;entryY=0.5;entryDx=0;entryDy=0;curved=1;" edge="1" parent="1" source="XAd3KGWDydO3m51I3IWx-2" target="XAd3KGWDydO3m51I3IWx-27">
          <mxGeometry relative="1" as="geometry">
            <Array as="points">
              <mxPoint x="470" y="155" />
              <mxPoint x="470" y="380" />
            </Array>
          </mxGeometry>
        </mxCell>
        <mxCell id="XAd3KGWDydO3m51I3IWx-36" style="edgeStyle=orthogonalEdgeStyle;rounded=0;orthogonalLoop=1;jettySize=auto;html=1;exitX=1;exitY=0.5;exitDx=0;exitDy=0;entryX=0;entryY=0.5;entryDx=0;entryDy=0;" edge="1" parent="1" source="XAd3KGWDydO3m51I3IWx-2" target="XAd3KGWDydO3m51I3IWx-35">
          <mxGeometry relative="1" as="geometry" />
        </mxCell>
        <mxCell id="XAd3KGWDydO3m51I3IWx-2" value="reservas" style="whiteSpace=wrap;html=1;align=center;" vertex="1" parent="1">
          <mxGeometry x="520" y="115" width="100" height="40" as="geometry" />
        </mxCell>
        <mxCell id="XAd3KGWDydO3m51I3IWx-37" style="edgeStyle=orthogonalEdgeStyle;rounded=0;orthogonalLoop=1;jettySize=auto;html=1;exitX=0;exitY=0.5;exitDx=0;exitDy=0;entryX=1;entryY=0.5;entryDx=0;entryDy=0;" edge="1" parent="1" source="XAd3KGWDydO3m51I3IWx-3" target="XAd3KGWDydO3m51I3IWx-35">
          <mxGeometry relative="1" as="geometry" />
        </mxCell>
        <mxCell id="XAd3KGWDydO3m51I3IWx-3" value="mesas" style="whiteSpace=wrap;html=1;align=center;" vertex="1" parent="1">
          <mxGeometry x="880" y="115" width="100" height="40" as="geometry" />
        </mxCell>
        <mxCell id="XAd3KGWDydO3m51I3IWx-5" value="id_cliente" style="ellipse;whiteSpace=wrap;html=1;align=center;" vertex="1" parent="1">
          <mxGeometry x="520" y="245" width="100" height="40" as="geometry" />
        </mxCell>
        <mxCell id="XAd3KGWDydO3m51I3IWx-6" value="id" style="ellipse;whiteSpace=wrap;html=1;align=center;" vertex="1" parent="1">
          <mxGeometry x="100" y="170" width="100" height="40" as="geometry" />
        </mxCell>
        <mxCell id="XAd3KGWDydO3m51I3IWx-7" value="id" style="ellipse;whiteSpace=wrap;html=1;align=center;" vertex="1" parent="1">
          <mxGeometry x="520" y="185" width="100" height="40" as="geometry" />
        </mxCell>
        <mxCell id="XAd3KGWDydO3m51I3IWx-8" value="correo electronico" style="ellipse;whiteSpace=wrap;html=1;align=center;" vertex="1" parent="1">
          <mxGeometry x="100" y="285" width="100" height="40" as="geometry" />
        </mxCell>
        <mxCell id="XAd3KGWDydO3m51I3IWx-9" value="nombre" style="ellipse;whiteSpace=wrap;html=1;align=center;" vertex="1" parent="1">
          <mxGeometry x="100" y="230" width="100" height="40" as="geometry" />
        </mxCell>
        <mxCell id="XAd3KGWDydO3m51I3IWx-13" value="id_mesa" style="ellipse;whiteSpace=wrap;html=1;align=center;" vertex="1" parent="1">
          <mxGeometry x="520" y="305" width="100" height="40" as="geometry" />
        </mxCell>
        <mxCell id="XAd3KGWDydO3m51I3IWx-14" value="descripcion" style="ellipse;whiteSpace=wrap;html=1;align=center;" vertex="1" parent="1">
          <mxGeometry x="880" y="305" width="100" height="40" as="geometry" />
        </mxCell>
        <mxCell id="XAd3KGWDydO3m51I3IWx-15" value="id" style="ellipse;whiteSpace=wrap;html=1;align=center;" vertex="1" parent="1">
          <mxGeometry x="880" y="175" width="100" height="40" as="geometry" />
        </mxCell>
        <mxCell id="XAd3KGWDydO3m51I3IWx-16" value="capacidad" style="ellipse;whiteSpace=wrap;html=1;align=center;" vertex="1" parent="1">
          <mxGeometry x="880" y="235" width="100" height="40" as="geometry" />
        </mxCell>
        <mxCell id="XAd3KGWDydO3m51I3IWx-17" value="tiene" style="shape=rhombus;perimeter=rhombusPerimeter;whiteSpace=wrap;html=1;align=center;" vertex="1" parent="1">
          <mxGeometry x="330" y="105" width="120" height="60" as="geometry" />
        </mxCell>
        <mxCell id="XAd3KGWDydO3m51I3IWx-24" value="&lt;font style=&quot;font-size: 20px;&quot;&gt;N&lt;/font&gt;" style="text;html=1;align=center;verticalAlign=middle;resizable=0;points=[];autosize=1;strokeColor=none;fillColor=none;" vertex="1" parent="1">
          <mxGeometry x="445" y="93" width="40" height="40" as="geometry" />
        </mxCell>
        <mxCell id="XAd3KGWDydO3m51I3IWx-26" value="&lt;font style=&quot;font-size: 20px;&quot;&gt;1&lt;/font&gt;" style="text;html=1;align=center;verticalAlign=middle;resizable=0;points=[];autosize=1;strokeColor=none;fillColor=none;" vertex="1" parent="1">
          <mxGeometry x="300" y="93" width="30" height="40" as="geometry" />
        </mxCell>
        <mxCell id="XAd3KGWDydO3m51I3IWx-27" value="fecha" style="ellipse;whiteSpace=wrap;html=1;align=center;" vertex="1" parent="1">
          <mxGeometry x="520" y="360" width="100" height="40" as="geometry" />
        </mxCell>
        <mxCell id="XAd3KGWDydO3m51I3IWx-35" value="tiene" style="shape=rhombus;perimeter=rhombusPerimeter;whiteSpace=wrap;html=1;align=center;" vertex="1" parent="1">
          <mxGeometry x="690" y="105" width="120" height="60" as="geometry" />
        </mxCell>
        <mxCell id="XAd3KGWDydO3m51I3IWx-38" value="&lt;font style=&quot;font-size: 20px;&quot;&gt;1&lt;/font&gt;" style="text;html=1;align=center;verticalAlign=middle;resizable=0;points=[];autosize=1;strokeColor=none;fillColor=none;" vertex="1" parent="1">
          <mxGeometry x="800" y="90" width="30" height="40" as="geometry" />
        </mxCell>
        <mxCell id="XAd3KGWDydO3m51I3IWx-39" value="&lt;font style=&quot;font-size: 20px;&quot;&gt;N&lt;/font&gt;" style="text;html=1;align=center;verticalAlign=middle;resizable=0;points=[];autosize=1;strokeColor=none;fillColor=none;" vertex="1" parent="1">
          <mxGeometry x="650" y="93" width="40" height="40" as="geometry" />
        </mxCell>
      </root>
    </mxGraphModel>
  </diagram>
</mxfile>
